<svg width="359" height="359" viewBox="0 0 359 359" fill="none" xmlns="http://www.w3.org/2000/svg">
<rect x="0.850037" y="0.849854" width="357.3" height="357.3" rx="178.65" fill="#E8EAF6"/>
<path d="M307.384 179.5L258.255 130.371C256.707 129.025 255.453 127.374 254.573 125.521C253.694 123.668 253.206 121.653 253.142 119.602C253.078 117.552 253.438 115.51 254.2 113.606C254.962 111.701 256.109 109.975 257.57 108.534C259.031 107.094 260.774 105.971 262.689 105.236C264.604 104.501 266.65 104.17 268.7 104.264C270.749 104.357 272.757 104.873 274.597 105.779C276.438 106.685 278.071 107.962 279.395 109.529L338.945 169.079C341.673 171.862 343.201 175.603 343.201 179.5C343.201 183.397 341.673 187.138 338.945 189.921L279.395 249.471C276.565 251.932 272.91 253.234 269.161 253.116C265.413 252.998 261.846 251.47 259.176 248.837C256.505 246.204 254.926 242.66 254.756 238.913C254.585 235.167 255.835 231.494 258.255 228.629L307.384 179.5ZM51.4675 179.5L100.596 228.629C103.016 231.494 104.266 235.167 104.095 238.913C103.925 242.66 102.346 246.204 99.6754 248.837C97.0047 251.47 93.4385 252.998 89.6899 253.116C85.9413 253.234 82.2864 251.932 79.456 249.471L19.906 189.921C17.1782 187.138 15.6503 183.397 15.6503 179.5C15.6503 175.603 17.1782 171.862 19.906 169.079L79.456 109.529C82.2864 107.068 85.9413 105.767 89.6899 105.884C93.4385 106.002 97.0047 107.53 99.6754 110.163C102.346 112.796 103.925 116.34 104.095 120.087C104.266 123.833 103.016 127.506 100.596 130.371L51.4675 179.5ZM164.017 302.173C162.949 305.87 160.49 309.01 157.157 310.934C153.824 312.858 149.875 313.416 146.139 312.492C142.403 311.568 139.17 309.233 137.119 305.976C135.067 302.72 134.356 298.796 135.135 295.027L194.685 56.8271C195.091 54.865 195.888 53.0049 197.03 51.3583C198.171 49.7117 199.633 48.3125 201.329 47.2444C203.024 46.1764 204.917 45.4615 206.895 45.1426C208.873 44.8238 210.895 44.9074 212.84 45.3887C214.785 45.8699 216.613 46.7388 218.214 47.9432C219.815 49.1477 221.157 50.6629 222.158 52.3982C223.16 54.1335 223.801 56.0531 224.043 58.042C224.285 60.0309 224.123 62.0482 223.567 63.9731L164.017 302.173Z" fill="#4A148C"/>
</svg>
