<svg width="214" height="214" viewBox="0 0 214 214" fill="none" xmlns="http://www.w3.org/2000/svg">
<path d="M179.962 150.356L179.962 180.26C179.932 187.788 172.869 195.304 158.76 201.049C130.362 212.61 84.1606 212.61 55.5767 201.049C41.191 195.23 34.0072 187.593 34.0381 179.968L34.038 150.064C34.0071 157.69 41.1909 165.327 55.5766 171.145C84.1605 182.706 130.362 182.706 158.76 171.145C172.869 165.4 179.931 157.884 179.962 150.356Z" fill="#798FFE"/>
<path d="M179.962 150.325C179.988 133.974 147.343 120.667 107.047 120.604C66.7511 120.54 34.0641 133.744 34.0382 150.095C34.0124 166.446 66.6576 179.753 106.953 179.816C147.249 179.88 179.936 166.676 179.962 150.325Z" fill="#8CA1FD"/>
<path d="M178.147 143.844C179.9 152.051 173.113 160.492 157.689 166.771C129.879 178.092 84.633 178.095 56.6403 166.771C41.0332 160.458 34.1063 151.961 35.8275 143.714C30.6227 153.28 37.1677 163.701 55.5767 171.145C84.1606 182.708 130.362 182.705 158.76 171.145C176.966 163.734 183.374 153.375 178.147 143.844Z" fill="#B7C5FD"/>
<path d="M174.251 110.568L174.251 138.131C174.223 145.07 167.714 151.998 154.709 157.293C128.533 167.949 85.9484 167.95 59.6018 157.293C46.342 151.93 39.7205 144.891 39.7489 137.863L39.7489 110.299C39.7204 117.328 46.3419 124.367 59.6017 129.73C85.9483 140.386 128.533 140.386 154.708 129.73C167.714 124.435 174.223 117.507 174.251 110.568Z" fill="#3955D1"/>
<path d="M179.962 92.1946L179.962 122.098C179.932 129.626 172.87 137.143 158.76 142.887C130.362 154.448 84.1608 154.449 55.5769 142.887C41.1912 137.069 34.0074 129.432 34.0382 121.807L34.0382 91.903C34.0073 99.5281 41.1911 107.165 55.5768 112.984C84.1607 124.545 130.362 124.544 158.76 112.983C172.87 107.239 179.932 99.7223 179.962 92.1946Z" fill="#798FFE"/>
<path d="M179.962 92.1638C179.988 75.8126 147.343 62.5058 107.047 62.4421C66.7511 62.3785 34.064 75.5821 34.0382 91.9332C34.0124 108.284 66.6576 121.591 106.953 121.655C147.249 121.718 179.936 108.515 179.962 92.1638Z" fill="#8CA1FD"/>
<path d="M178.147 85.6828C179.901 93.8897 173.113 102.33 157.689 108.609C129.879 119.931 84.6331 119.933 56.6404 108.609C41.0334 102.297 34.1065 93.8 35.8277 85.553C30.6228 95.1191 37.1678 105.539 55.5769 112.984C84.1607 124.546 130.362 124.544 158.76 112.984C176.966 105.572 183.374 95.2135 178.147 85.6828Z" fill="#B7C5FD"/>
<path d="M174.251 52.4068L174.251 79.97C174.223 86.9086 167.714 93.8369 154.708 99.1316C128.533 109.788 85.9483 109.788 59.6016 99.1319C46.3418 93.7689 39.7204 86.7296 39.7488 79.7012L39.7487 52.138C39.7203 59.1664 46.3418 66.2056 59.6016 71.5687C85.9482 82.2249 128.533 82.2247 154.708 71.5684C167.714 66.2737 174.223 59.3454 174.251 52.4068Z" fill="#3955D1"/>
<path d="M179.962 34.0332L179.962 63.937C179.932 71.4648 172.87 78.9814 158.76 84.7258C130.362 96.2869 84.1608 96.2872 55.5769 84.7261C41.1912 78.9076 34.0074 71.2706 34.0383 63.6454L34.0382 33.7416C34.0073 41.3667 41.1911 49.0038 55.5768 54.8223C84.1607 66.3833 130.362 66.3831 158.76 54.8219C172.87 49.0776 179.932 41.561 179.962 34.0332Z" fill="#798FFE"/>
<path d="M179.962 34.0024C179.988 17.6513 147.342 4.34443 107.047 4.28077C66.751 4.2171 34.0639 17.4207 34.0381 33.7718C34.0122 50.123 66.6574 63.4298 106.953 63.4935C147.249 63.5571 179.936 50.3535 179.962 34.0024Z" fill="#8CA1FD"/>
<path d="M178.147 27.5214C179.9 35.7283 173.113 44.1688 157.689 50.4479C129.879 61.7696 84.633 61.7719 56.6403 50.4479C41.0332 44.1358 34.1063 35.6387 35.8275 27.3917C30.6227 36.9577 37.1677 47.378 55.5767 54.8227C84.1606 66.3851 130.362 66.3827 158.76 54.8227C176.966 47.411 183.374 37.0521 178.147 27.5214Z" fill="#B7C5FD"/>
</svg>
