<svg width="300" height="300" viewBox="0 0 300 300" fill="none" xmlns="http://www.w3.org/2000/svg">
<rect width="300" height="300" fill="#4A148C"/>
<path d="M261.726 160.48L218.83 117.583C217.478 116.408 216.383 114.966 215.615 113.348C214.847 111.73 214.421 109.97 214.365 108.18C214.309 106.39 214.624 104.607 215.289 102.944C215.954 101.281 216.956 99.7736 218.232 98.516C219.507 97.2585 221.029 96.2781 222.701 95.6364C224.373 94.9947 226.16 94.7056 227.95 94.7871C229.739 94.8687 231.492 95.3191 233.099 96.1102C234.706 96.9013 236.132 98.016 237.288 99.3844L289.284 151.38C291.666 153.81 293 157.077 293 160.48C293 163.882 291.666 167.149 289.284 169.579L237.288 221.575C234.817 223.723 231.626 224.86 228.352 224.757C225.079 224.654 221.966 223.32 219.634 221.021C217.302 218.722 215.923 215.628 215.774 212.356C215.625 209.085 216.716 205.878 218.83 203.376L261.726 160.48ZM38.2737 160.48L81.1704 203.376C83.2835 205.878 84.3747 209.085 84.2256 212.356C84.0765 215.628 82.6983 218.722 80.3663 221.021C78.0344 223.32 74.9206 224.654 71.6476 224.757C68.3745 224.86 65.1832 223.723 62.7118 221.575L10.7159 169.579C8.33409 167.149 7 163.882 7 160.48C7 157.077 8.33409 153.81 10.7159 151.38L62.7118 99.3844C65.1832 97.2359 68.3745 96.0994 71.6476 96.2021C74.9206 96.3047 78.0344 97.639 80.3663 99.938C82.6983 102.237 84.0765 105.332 84.2256 108.603C84.3747 111.874 83.2835 115.081 81.1704 117.583L38.2737 160.48ZM136.546 267.591C135.613 270.82 133.466 273.561 130.556 275.241C127.646 276.921 124.198 277.408 120.936 276.601C117.674 275.794 114.851 273.755 113.06 270.912C111.269 268.069 110.648 264.643 111.328 261.352L163.324 53.3679C163.678 51.6547 164.374 50.0306 165.371 48.5929C166.368 47.1552 167.644 45.9334 169.125 45.0009C170.605 44.0683 172.258 43.4441 173.985 43.1657C175.712 42.8873 177.478 42.9603 179.176 43.3805C180.874 43.8007 182.47 44.5593 183.868 45.611C185.266 46.6627 186.438 47.9857 187.312 49.5009C188.187 51.016 188.746 52.6921 188.958 54.4287C189.169 56.1654 189.028 57.9268 188.542 59.6075L136.546 267.591Z" fill="#7C43BD"/>
<rect opacity="0.3" x="21" y="82" width="253" height="68" fill="#12005E"/>
<path d="M51.3838 125.04C51.3838 123.586 50.8646 122.453 49.8262 121.642C48.8066 120.83 47.0036 119.99 44.417 119.121C41.8304 118.253 39.7158 117.412 38.0732 116.601C32.7301 113.976 30.0586 110.37 30.0586 105.782C30.0586 103.498 30.7194 101.487 32.041 99.75C33.3815 97.9941 35.2695 96.6348 37.7051 95.6719C40.1406 94.6901 42.8783 94.1992 45.918 94.1992C48.8822 94.1992 51.5348 94.7279 53.876 95.7852C56.236 96.8424 58.0674 98.3529 59.3701 100.316C60.6729 102.261 61.3242 104.489 61.3242 107H51.4121C51.4121 105.32 50.8929 104.017 49.8545 103.092C48.835 102.167 47.4473 101.704 45.6914 101.704C43.9167 101.704 42.5101 102.101 41.4717 102.894C40.4521 103.668 39.9424 104.659 39.9424 105.867C39.9424 106.924 40.5088 107.887 41.6416 108.756C42.7744 109.605 44.7663 110.493 47.6172 111.418C50.4681 112.324 52.8092 113.306 54.6406 114.363C59.0964 116.931 61.3242 120.471 61.3242 124.983C61.3242 128.59 59.9648 131.422 57.2461 133.479C54.5273 135.537 50.7985 136.566 46.0596 136.566C42.7178 136.566 39.6875 135.972 36.9688 134.782C34.2689 133.574 32.2298 131.931 30.8516 129.854C29.4922 127.759 28.8125 125.352 28.8125 122.633H38.7812C38.7812 124.842 39.3477 126.475 40.4805 127.532C41.6322 128.571 43.4919 129.09 46.0596 129.09C47.7021 129.09 48.9954 128.741 49.9395 128.042C50.9023 127.325 51.3838 126.324 51.3838 125.04ZM91.9951 118.526H76.3623V128.354H94.8271V136H66.4219V94.7656H94.8838V102.44H76.3623V111.135H91.9951V118.526ZM114.198 121.443H108.817V136H98.877V94.7656H115.104C119.994 94.7656 123.818 95.8512 126.574 98.0225C129.331 100.194 130.709 103.262 130.709 107.227C130.709 110.096 130.124 112.475 128.953 114.363C127.801 116.251 125.989 117.781 123.516 118.951L132.125 135.575V136H121.477L114.198 121.443ZM108.817 113.769H115.104C116.993 113.769 118.409 113.278 119.353 112.296C120.315 111.295 120.797 109.908 120.797 108.133C120.797 106.358 120.315 104.97 119.353 103.97C118.39 102.95 116.974 102.44 115.104 102.44H108.817V113.769ZM152.147 124.785L160.36 94.7656H171.462L157.585 136H146.71L132.946 94.7656H143.963L152.147 124.785ZM185.084 136H175.172V94.7656H185.084V136ZM225.355 122.038C225.223 124.908 224.449 127.447 223.033 129.656C221.617 131.846 219.625 133.546 217.058 134.754C214.509 135.962 211.592 136.566 208.307 136.566C202.888 136.566 198.621 134.801 195.506 131.271C192.391 127.74 190.833 122.756 190.833 116.317V114.278C190.833 110.238 191.532 106.707 192.929 103.687C194.345 100.647 196.374 98.3057 199.018 96.6631C201.661 95.0016 204.719 94.1709 208.193 94.1709C213.197 94.1709 217.218 95.4925 220.258 98.1357C223.298 100.76 225.025 104.385 225.44 109.011H215.528C215.453 106.5 214.82 104.697 213.631 103.602C212.441 102.507 210.629 101.959 208.193 101.959C205.72 101.959 203.908 102.884 202.756 104.734C201.604 106.585 201 109.539 200.943 113.599V116.516C200.943 120.915 201.491 124.058 202.586 125.946C203.7 127.834 205.607 128.778 208.307 128.778C210.591 128.778 212.338 128.24 213.546 127.164C214.754 126.088 215.396 124.379 215.472 122.038H225.355ZM255.63 118.526H239.997V128.354H258.462V136H230.057V94.7656H258.519V102.44H239.997V111.135H255.63V118.526ZM63.4766 190.038C63.3444 192.908 62.5703 195.447 61.1543 197.656C59.7383 199.846 57.7464 201.546 55.1787 202.754C52.6299 203.962 49.7129 204.566 46.4277 204.566C41.0091 204.566 36.7422 202.801 33.627 199.271C30.5117 195.74 28.9541 190.756 28.9541 184.317V182.278C28.9541 178.238 29.6527 174.707 31.0498 171.687C32.4658 168.647 34.4954 166.306 37.1387 164.663C39.7819 163.002 42.8405 162.171 46.3145 162.171C51.3177 162.171 55.3392 163.493 58.3789 166.136C61.4186 168.76 63.1462 172.385 63.5615 177.011H53.6494C53.5739 174.5 52.9414 172.697 51.752 171.602C50.5625 170.507 48.75 169.959 46.3145 169.959C43.8411 169.959 42.0286 170.884 40.877 172.734C39.7253 174.585 39.1211 177.539 39.0645 181.599V184.516C39.0645 188.915 39.612 192.058 40.707 193.946C41.821 195.834 43.7279 196.778 46.4277 196.778C48.7122 196.778 50.4587 196.24 51.667 195.164C52.8753 194.088 53.5173 192.379 53.5928 190.038H63.4766ZM103.097 184.232C103.097 188.254 102.351 191.813 100.859 194.909C99.3678 198.006 97.2438 200.394 94.4873 202.074C91.7497 203.736 88.625 204.566 85.1133 204.566C81.6016 204.566 78.4863 203.764 75.7676 202.159C73.0488 200.535 70.9248 198.223 69.3955 195.221C67.8851 192.219 67.0921 188.773 67.0166 184.884V182.562C67.0166 178.521 67.7529 174.962 69.2256 171.885C70.7171 168.788 72.8411 166.4 75.5977 164.72C78.373 163.039 81.526 162.199 85.0566 162.199C88.5495 162.199 91.6647 163.03 94.4023 164.691C97.14 166.353 99.264 168.722 100.774 171.8C102.304 174.858 103.078 178.37 103.097 182.335V184.232ZM92.9863 182.505C92.9863 178.408 92.2972 175.302 90.9189 173.188C89.5596 171.054 87.6055 169.987 85.0566 169.987C80.0723 169.987 77.4385 173.726 77.1553 181.202L77.127 184.232C77.127 188.273 77.7972 191.379 79.1377 193.55C80.4782 195.721 82.4701 196.807 85.1133 196.807C87.6243 196.807 89.5596 195.74 90.9189 193.606C92.2783 191.473 92.9674 188.405 92.9863 184.402V182.505ZM108.223 204V162.766H121.505C125.149 162.766 128.424 163.596 131.332 165.258C134.24 166.9 136.505 169.232 138.129 172.253C139.771 175.255 140.602 178.625 140.621 182.363V184.261C140.621 188.037 139.819 191.426 138.214 194.428C136.628 197.411 134.381 199.752 131.474 201.451C128.585 203.132 125.356 203.981 121.788 204H108.223ZM118.163 170.44V196.354H121.618C124.469 196.354 126.659 195.343 128.188 193.323C129.718 191.284 130.482 188.263 130.482 184.261V182.477C130.482 178.493 129.718 175.491 128.188 173.471C126.659 171.451 124.431 170.44 121.505 170.44H118.163ZM171.292 186.526H155.659V196.354H174.124V204H145.719V162.766H174.181V170.44H155.659V179.135H171.292V186.526ZM193.495 189.443H188.114V204H178.174V162.766H194.401C199.291 162.766 203.115 163.851 205.871 166.022C208.628 168.194 210.006 171.262 210.006 175.227C210.006 178.096 209.421 180.475 208.25 182.363C207.098 184.251 205.286 185.781 202.812 186.951L211.422 203.575V204H200.773L193.495 189.443ZM188.114 181.769H194.401C196.289 181.769 197.705 181.278 198.649 180.296C199.612 179.295 200.094 177.908 200.094 176.133C200.094 174.358 199.612 172.97 198.649 171.97C197.687 170.95 196.271 170.44 194.401 170.44H188.114V181.769ZM237.278 193.04C237.278 191.586 236.759 190.453 235.721 189.642C234.701 188.83 232.898 187.99 230.312 187.121C227.725 186.253 225.61 185.412 223.968 184.601C218.625 181.976 215.953 178.37 215.953 173.782C215.953 171.498 216.614 169.487 217.936 167.75C219.276 165.994 221.164 164.635 223.6 163.672C226.035 162.69 228.773 162.199 231.812 162.199C234.777 162.199 237.429 162.728 239.771 163.785C242.131 164.842 243.962 166.353 245.265 168.316C246.567 170.261 247.219 172.489 247.219 175H237.307C237.307 173.32 236.787 172.017 235.749 171.092C234.729 170.167 233.342 169.704 231.586 169.704C229.811 169.704 228.405 170.101 227.366 170.894C226.347 171.668 225.837 172.659 225.837 173.867C225.837 174.924 226.403 175.887 227.536 176.756C228.669 177.605 230.661 178.493 233.512 179.418C236.363 180.324 238.704 181.306 240.535 182.363C244.991 184.931 247.219 188.471 247.219 192.983C247.219 196.59 245.859 199.422 243.141 201.479C240.422 203.537 236.693 204.566 231.954 204.566C228.612 204.566 225.582 203.972 222.863 202.782C220.163 201.574 218.124 199.931 216.746 197.854C215.387 195.759 214.707 193.352 214.707 190.633H224.676C224.676 192.842 225.242 194.475 226.375 195.532C227.527 196.571 229.386 197.09 231.954 197.09C233.597 197.09 234.89 196.741 235.834 196.042C236.797 195.325 237.278 194.324 237.278 193.04Z" fill="white"/>
</svg>
